HIERARCHY
ROOT Hips
{
	OFFSET 0.00000 0.00000 0.00000
	CHANNELS 6 Xposition Yposition Zposition Zrotation Yrotation Xrotation 
	JOINT LHipJoint
	{
		OFFSET 0 0 0
		CHANNELS 3 Zrotation Yrotation Xrotation
		JOINT LeftUpLeg
		{
			OFFSET 1.36337 -1.57426 1.11036
			CHANNELS 3 Zrotation Yrotation Xrotation
			JOINT LeftLeg
			{
				OFFSET 2.38468 -6.55187 0.00000
				CHANNELS 3 Zrotation Yrotation Xrotation
				JOINT LeftFoot
				{
					OFFSET 2.37166 -6.51609 0.00000
					CHANNELS 3 Zrotation Yrotation Xrotation
					JOINT LeftToeBase
					{
						OFFSET 0.29078 -0.79891 2.01393
						CHANNELS 3 Zrotation Yrotation Xrotation
						End Site
						{
							OFFSET 0.00000 -0.00000 1.07924
						}
					}
				}
			}
		}
	}
	JOINT RHipJoint
	{
		OFFSET 0 0 0
		CHANNELS 3 Zrotation Yrotation Xrotation
		JOINT RightUpLeg
		{
			OFFSET -1.36349 -1.57426 1.11036
			CHANNELS 3 Zrotation Yrotation Xrotation
			JOINT RightLeg
			{
				OFFSET -2.29562 -6.30717 0.00000
				CHANNELS 3 Zrotation Yrotation Xrotation
				JOINT RightFoot
				{
					OFFSET -2.40985 -6.62100 0.00000
					CHANNELS 3 Zrotation Yrotation Xrotation
					JOINT RightToeBase
					{
						OFFSET -0.23197 -0.63733 1.92232
						CHANNELS 3 Zrotation Yrotation Xrotation
						End Site
						{
							OFFSET -0.00000 -0.00000 1.01562
						}
					}
				}
			}
		}
	}
	JOINT LowerBack
	{
		OFFSET 0 0 0
		CHANNELS 3 Zrotation Yrotation Xrotation
		JOINT Spine
		{
			OFFSET -0.08565 2.03602 -0.24562
			CHANNELS 3 Zrotation Yrotation Xrotation
			JOINT Spine1
			{
				OFFSET -0.00036 2.05693 0.00216
				CHANNELS 3 Zrotation Yrotation Xrotation
				JOINT Neck
				{
					OFFSET 0 0 0
					CHANNELS 3 Zrotation Yrotation Xrotation
					JOINT Neck1
					{
						OFFSET -0.03664 1.69515 0.31789
						CHANNELS 3 Zrotation Yrotation Xrotation
						JOINT Head
						{
							OFFSET 0.00932 1.70181 -0.46013
							CHANNELS 3 Zrotation Yrotation Xrotation
							End Site
							{
								OFFSET 0.01243 1.77620 -0.19377
							}
						}
					}
				}
				JOINT LeftShoulder
				{
					OFFSET 0 0 0
					CHANNELS 3 Zrotation Yrotation Xrotation
					JOINT LeftArm
					{
						OFFSET 3.74344 0.81315 -0.36647
						CHANNELS 3 Zrotation Yrotation Xrotation
						JOINT LeftForeArm
						{
							OFFSET 4.97185 -0.00000 -0.00000
							CHANNELS 3 Zrotation Yrotation Xrotation
							JOINT LeftHand
							{
								OFFSET 3.35811 -0.00000 0.00000
								CHANNELS 3 Zrotation Yrotation Xrotation
								JOINT LeftFingerBase
								{
									OFFSET 0 0 0
									CHANNELS 3 Zrotation Yrotation Xrotation
									JOINT LeftHandIndex1
									{
										OFFSET 0.62278 -0.00000 0.00000
										CHANNELS 3 Zrotation Yrotation Xrotation
										End Site
										{
											OFFSET 0.50210 -0.00000 0.00000
										}
									}
								}
								JOINT LThumb
								{
									OFFSET 0 0 0
									CHANNELS 3 Zrotation Yrotation Xrotation
									End Site
									{
										OFFSET 0.50976 -0.00000 0.50976
									}
								}
							}
						}
					}
				}
				JOINT RightShoulder
				{
					OFFSET 0 0 0
					CHANNELS 3 Zrotation Yrotation Xrotation
					JOINT RightArm
					{
						OFFSET -3.75385 0.50666 -0.06525
						CHANNELS 3 Zrotation Yrotation Xrotation
						JOINT RightForeArm
						{
							OFFSET -4.96493 -0.00000 -0.00000
							CHANNELS 3 Zrotation Yrotation Xrotation
							JOINT RightHand
							{
								OFFSET -3.34929 -0.00000 0.00000
								CHANNELS 3 Zrotation Yrotation Xrotation
								JOINT RightFingerBase
								{
									OFFSET 0 0 0
									CHANNELS 3 Zrotation Yrotation Xrotation
									JOINT RightHandIndex1
									{
										OFFSET -0.63804 -0.00000 0.00000
										CHANNELS 3 Zrotation Yrotation Xrotation
										End Site
										{
											OFFSET -0.51441 -0.00000 0.00000
										}
									}
								}
								JOINT RThumb
								{
									OFFSET 0 0 0
									CHANNELS 3 Zrotation Yrotation Xrotation
									End Site
									{
										OFFSET -0.52226 -0.00000 0.52226
									}
								}
							}
						}
					}
				}
			}
		}
	}
}
MOTION
Frames: 11
Frame Time: .0083333
-29.488 16.6796 -2.0089 0 0 0 0 0 0 -21 0 0 0 0 0 0 0 0 0 0 0 0 0 0 21 0 0 0 0 0 0 0 0 0 0 0 0 0 0 0 0 0 0 0 0 0 0 -16 0 0 21 0 0 11 0 0 0 -8 0 0 0 0 0 0 0 0 0 0 0 0 0 0 0 0 0 0 0 0 8 0 0 0 0 0 0 0 0 0 0 0 0 0 0 0 0 0
-29.4880 16.6796 -2.0089 8.3762 81.4339 41.3207 0.0000 0.0000 0.0000 -16.7945 -10.1227 -40.3040 2.3001 9.4651 27.2612 1.0427 16.1362 -30.9700 0.0199 0.9115 2.5055 0.0000 0.0000 0.0000 6.8059 6.1103 -42.2829 -1.8582 -8.5643 24.4417 -0.1835 -10.7547 -17.8070 -0.0044 -0.4263 1.1715 -5.4389 -0.8458 -38.3992 1.6519 1.4413 -2.1872 5.4728 0.3776 16.5407 1.7425 5.9820 -18.7088 -6.4557 9.4844 19.4939 -1.1909 3.8740 9.6764 0.0000 -0.0000 0.0000 -90.9629 -3.7643 40.7187 16.2909 -25.9135 -3.7722 -0.0000 0.0000 -10.7887 23.1060 -3.9671 -1.6907 -7.1250 0.0000 -0.0000 -2.6647 25.6671 1.2488 0.0000 -0.0000 0.0000 85.0393 3.8229 20.3388 -15.8042 25.2545 -3.5620 0.0000 -0.0000 -5.1735 -14.0980 -34.0467 8.0038 7.1250 -0.0000 -0.0000 23.1143 -63.3874 -10.5970
-29.4593 16.6825 -2.0537 7.9860 80.8781 40.6048 0.0000 0.0000 0.0000 -17.2092 -9.8011 -39.8052 2.2827 9.4317 27.1554 1.0822 16.1350 -31.2222 0.0411 1.3079 3.5964 0.0000 0.0000 0.0000 6.6749 5.4002 -42.7872 -2.0241 -8.9160 25.5330 -0.2161 -9.4831 -16.7191 -0.0038 0.3957 -1.0873 -5.0103 -0.2835 -37.7165 0.9908 2.0671 -2.6149 4.7621 0.7482 15.7167 2.5569 6.4774 -17.7118 -6.4032 9.9649 19.6353 -1.2599 4.1890 9.6022 0.0000 -0.0000 0.0000 -89.6627 -3.0297 41.9956 16.0318 -25.5637 -3.6597 -0.0000 0.0000 -10.7398 21.6953 -4.3639 -1.7340 -7.1250 0.0000 -0.0000 -3.7260 25.2836 1.7813 0.0000 -0.0000 0.0000 86.1065 2.6254 19.0139 -16.0171 25.5439 -3.6534 0.0000 -0.0000 -5.0352 -14.9093 -33.8023 8.4256 7.1250 -0.0000 -0.0000 21.9870 -63.3788 -10.0495
-29.4495 16.6827 -2.0967 6.5988 80.6674 38.6602 0.0000 0.0000 0.0000 -17.1680 -9.7226 -39.1647 2.3092 9.4825 27.3166 1.1911 15.9616 -31.7402 0.0699 1.7057 4.6930 0.0000 0.0000 0.0000 6.8704 4.7447 -42.8003 -2.1126 -9.0967 26.0984 -0.2362 -8.5143 -15.9007 -0.0679 1.6809 -4.6246 -4.8017 -0.1834 -36.9207 0.9974 2.0541 -2.8058 4.6285 0.7791 15.1906 3.0637 7.2709 -16.7371 -6.6237 11.0352 19.7271 -1.2901 4.7302 9.5521 0.0000 0.0000 0.0000 -89.2408 -2.8193 42.4219 15.6186 -25.0008 -3.4832 -0.0000 0.0000 -10.2603 20.4859 -4.4546 -1.6621 -7.1250 0.0000 -0.0000 -4.6343 25.2245 2.2243 0.0000 0.0000 0.0000 86.3053 1.9699 18.4858 -16.1040 25.6615 -3.6909 0.0000 -0.0000 -4.9640 -15.5903 -33.5988 8.7774 7.1250 -0.0000 -0.0000 21.0422 -63.3713 -9.5939
-29.4602 16.6827 -2.1393 3.2144 80.5814 34.5820 0.0000 0.0000 0.0000 -16.6654 -9.7694 -38.3612 2.3263 9.5150 27.4200 1.2812 16.1718 -32.4954 0.0673 1.6732 4.6034 0.0000 0.0000 0.0000 7.3481 4.3392 -42.4982 -2.1873 -9.2458 26.5672 -0.3117 -7.1759 -15.5428 -0.1343 2.3618 -6.5066 -4.2071 -0.0351 -36.0871 1.1310 1.9075 -2.7469 4.3938 0.7350 15.0831 3.5866 8.2734 -15.9968 -6.8608 12.3799 19.6449 -1.2857 5.3945 9.5106 -0.0000 0.0000 0.0000 -88.8854 -3.0876 42.2145 15.2291 -24.4642 -3.3202 -0.0000 0.0000 -9.4328 19.4986 -4.6396 -1.6406 -7.1250 0.0000 -0.0000 -5.3715 25.0580 2.6018 -0.0000 0.0000 0.0000 86.4225 2.0618 18.0476 -16.0060 25.5287 -3.6485 0.0000 -0.0000 -4.6491 -15.6874 -32.2367 8.5202 7.1250 -0.0000 -0.0000 19.7081 -62.1340 -8.3869
-29.4773 16.6854 -2.1781 -0.4810 80.3940 30.1716 0.0000 0.0000 0.0000 -16.0682 -9.8847 -37.5707 2.3549 9.5691 27.5923 1.3409 16.6780 -33.3319 0.0461 1.3851 3.8090 0.0000 0.0000 0.0000 7.6398 4.3267 -41.7502 -2.1985 -9.2679 26.6369 -0.3984 -5.7768 -15.4412 -0.0811 1.8369 -5.0552 -3.5109 0.2788 -35.2327 1.1713 1.9638 -2.6058 4.0737 0.7901 14.9276 4.4286 9.2704 -15.4041 -7.2847 13.7121 19.7285 -1.3851 6.0470 9.6032 -0.0000 0.0000 0.0000 -88.4863 -3.6161 41.8855 14.6648 -23.6771 -3.0901 -0.0000 0.0000 -8.2751 18.8489 -5.0163 -1.7098 -7.1250 0.0000 -0.0000 -5.8480 24.6813 2.8861 -0.0000 0.0000 0.0000 86.6579 2.2010 17.2760 -15.8939 25.3765 -3.6004 0.0000 -0.0000 -4.5149 -15.5074 -30.0419 7.9082 7.1250 -0.0000 -0.0000 18.1641 -60.0246 -6.7932
-29.4832 16.6873 -2.2060 -3.5840 80.3259 26.6348 0.0000 0.0000 0.0000 -15.4838 -10.0434 -37.0190 2.3755 9.6080 27.7165 1.4470 16.7509 -34.0166 0.0595 1.5744 4.3307 0.0000 0.0000 0.0000 7.7489 4.5805 -40.9417 -2.1448 -9.1614 26.3014 -0.4452 -5.0906 -15.5026 -0.0429 1.3368 -3.6759 -2.7893 0.5891 -34.6707 1.1185 2.0617 -2.6280 3.6549 0.8813 14.6918 5.5932 10.2383 -14.6315 -7.9742 15.0435 19.9307 -1.6222 6.6997 9.7733 0.0000 0.0000 0.0000 -88.0463 -3.8867 41.2608 14.1384 -22.9322 -2.8818 -0.0000 0.0000 -6.7854 18.1074 -5.0433 -1.6466 -7.1250 0.0000 -0.0000 -6.4007 24.6756 3.1629 0.0000 0.0000 0.0000 86.9886 1.9580 16.5416 -15.9059 25.3929 -3.6055 0.0000 -0.0000 -4.9010 -15.3998 -29.3228 7.6824 7.1250 -0.0000 -0.0000 17.7646 -59.3163 -6.3357
-29.4781 16.6901 -2.2250 -6.1442 80.4360 23.8769 0.0000 0.0000 0.0000 -15.0385 -10.0098 -36.7752 2.3926 9.6400 27.8188 1.5557 16.3800 -34.2962 0.0954 1.9920 5.4835 0.0000 0.0000 0.0000 7.8070 4.8610 -40.1147 -2.0218 -8.9113 25.5182 -0.4791 -5.1187 -15.9543 -0.0315 1.1463 -3.1516 -2.2134 0.7410 -34.5743 1.1727 2.0204 -2.6003 3.3850 0.8936 14.7051 6.6817 11.2479 -13.8768 -8.7563 16.5191 20.1797 -1.8462 7.4040 10.0072 0.0000 -0.0000 0.0000 -87.7591 -4.2530 40.2850 13.6593 -22.2455 -2.6978 -0.0000 0.0000 -4.7658 17.6276 -4.8942 -1.5528 -7.1250 0.0000 -0.0000 -6.7642 24.8450 3.3181 0.0000 -0.0000 0.0000 87.0822 1.7235 16.1545 -15.9716 25.4821 -3.6337 0.0000 -0.0000 -5.4261 -14.8059 -29.2311 7.3549 7.1250 -0.0000 -0.0000 18.3277 -59.0941 -6.4468
-29.4649 16.7026 -2.2366 -8.3164 80.7009 21.6635 0.0000 0.0000 0.0000 -14.7751 -9.7389 -36.7780 2.4080 9.6686 27.9102 1.5384 15.9483 -33.8085 0.1213 2.2452 6.1838 0.0000 0.0000 0.0000 7.8073 5.1756 -39.1515 -1.8309 -8.5047 24.2578 -0.5065 -5.9001 -16.8919 -0.0288 1.0950 -3.0103 -1.7456 0.8136 -34.6689 1.2312 1.9328 -2.6651 3.1603 0.8859 14.6853 7.7995 12.2437 -12.9225 -9.4464 18.0034 20.4649 -2.0429 8.1329 10.2435 -0.0000 -0.0000 0.0000 -87.4702 -4.6174 39.1545 13.0956 -21.4271 -2.4881 -0.0000 0.0000 -2.2282 17.4620 -4.6164 -1.4503 -7.1250 0.0000 -0.0000 -6.8988 25.1385 3.3377 -0.0000 -0.0000 0.0000 87.1291 1.2461 15.8646 -16.0558 25.5962 -3.6700 0.0000 -0.0000 -5.8043 -13.7749 -28.5288 6.6783 7.1250 -0.0000 -0.0000 18.9215 -58.1999 -6.2557
-29.4477 16.7091 -2.2394 -9.6381 81.0223 20.4348 0.0000 0.0000 0.0000 -14.6873 -9.4538 -36.9113 2.4157 9.6831 27.9564 1.4913 15.4415 -33.0802 0.1581 2.5619 7.0613 0.0000 0.0000 0.0000 7.5664 5.6793 -38.0918 -1.6029 -7.9848 22.6679 -0.4983 -7.4214 -18.0690 -0.0178 0.8603 -2.3646 -1.4557 0.8073 -34.9778 1.2481 1.8268 -2.7512 2.9830 0.8619 14.7223 8.9334 13.1928 -11.7439 -10.1244 19.4279 20.4922 -2.2575 8.8554 10.3708 0.0000 -0.0000 0.0000 -87.1153 -4.9256 38.5943 12.5197 -20.5795 -2.2817 -0.0000 0.0000 -1.6082 18.6730 -4.6008 -1.5528 -7.1250 0.0000 -0.0000 -5.9917 25.1225 2.8961 0.0000 -0.0000 0.0000 87.2221 0.7572 15.6292 -16.0952 25.6495 -3.6871 0.0000 -0.0000 -6.0804 -13.4098 -28.1580 6.4193 7.1250 -0.0000 -0.0000 19.0505 -57.7706 -6.1017
-29.4285 16.7134 -2.2383 -10.8506 81.2987 19.2681 0.0000 0.0000 0.0000 -14.5148 -9.3970 -36.9059 2.4208 9.6925 27.9864 1.4970 15.1091 -32.8184 0.1908 2.8132 7.7590 0.0000 0.0000 0.0000 7.2763 6.2957 -36.7712 -1.3537 -7.3653 20.8023 -0.4555 -9.1975 -19.2501 -0.0011 0.2107 -0.5788 -1.1383 0.8454 -35.1334 1.2208 1.7725 -2.8865 2.7593 0.8666 14.6372 10.0053 14.1249 -10.4083 -10.6928 20.8300 20.3393 -2.4381 9.5889 10.4101 -0.0000 0.0000 0.0000 -86.7160 -5.0351 38.5844 11.9490 -19.7282 -2.0851 -0.0000 0.0000 -3.8895 22.1138 -7.5265 -3.0466 -7.1250 0.0000 -0.0000 -3.4215 21.8688 1.9041 -0.0000 0.0000 0.0000 87.3898 0.1960 15.4441 -16.1297 25.6962 -3.7020 0.0000 -0.0000 -6.1343 -13.8564 -28.0951 6.6261 7.1250 -0.0000 -0.0000 18.5481 -57.8071 -5.9497
